<?xml version="1.0" encoding="UTF-8" standalone="no"?>
<!DOCTYPE svg PUBLIC "-//W3C//DTD SVG 1.1//EN" "http://www.w3.org/Graphics/SVG/1.1/DTD/svg11.dtd">
<svg width="100%" height="100%" viewBox="0 0 48 48" version="1.1" xmlns="http://www.w3.org/2000/svg" xmlns:xlink="http://www.w3.org/1999/xlink"
     xml:space="preserve" xmlns:serif="http://www.serif.com/" style="fill-rule:evenodd;clip-rule:evenodd;stroke-linejoin:round;stroke-miterlimit:2;">
    <g transform="matrix(1,0,0,1,-0.8376,0)">
        <path
            d="M41.096,7.323C41.54,4.749 42.191,3.131 42.913,3.127L42.915,3.127C44.261,3.132 45.352,8.745 45.352,15.676C45.352,22.606 44.259,28.224 42.911,28.224C42.359,28.224 41.849,27.27 41.439,25.672C40.79,31.523 39.444,35.546 37.886,35.546C36.681,35.546 35.599,33.13 34.872,29.319C34.376,36.566 33.128,41.708 31.669,41.708C30.753,41.708 29.919,39.67 29.301,36.353C28.557,43.201 26.84,48 24.838,48C22.836,48 21.116,43.203 20.376,36.353C19.763,39.67 18.928,41.708 18.008,41.708C16.549,41.708 15.303,36.566 14.804,29.319C14.078,33.13 12.999,35.546 11.79,35.546C10.234,35.546 8.886,31.525 8.238,25.672C7.83,27.275 7.317,28.224 6.765,28.224C5.417,28.224 4.325,22.606 4.325,15.676C4.325,8.745 5.417,3.127 6.765,3.127C7.488,3.127 8.135,4.751 8.584,7.323C9.303,2.885 10.47,0 11.79,0C13.358,0 14.716,4.08 15.358,10.004C15.987,5.692 16.941,2.943 18.009,2.943C19.506,2.943 20.779,8.35 21.251,15.891C22.137,12.024 23.421,9.599 24.841,9.599C26.262,9.599 27.546,12.026 28.431,15.891C28.904,8.35 30.175,2.943 31.672,2.943C32.739,2.943 33.691,5.692 34.323,10.004C34.964,4.08 36.322,0 37.889,0C39.205,0 40.377,2.886 41.096,7.323ZM0.838,14.442C0.838,11.344 1.457,8.831 2.222,8.831C2.987,8.831 3.606,11.344 3.606,14.442C3.606,17.54 2.987,20.052 2.222,20.052C1.457,20.052 0.838,17.54 0.838,14.442ZM46.069,14.442C46.069,11.344 46.689,8.831 47.453,8.831C48.218,8.831 48.838,11.344 48.838,14.442C48.838,17.54 48.218,20.052 47.453,20.052C46.689,20.052 46.069,17.54 46.069,14.442Z"
            style="fill:rgb(162,56,255);"/>
    </g>
</svg>
